<?xml version="1.0" encoding="UTF-8"?>
<svg id="moon" xmlns="http://www.w3.org/2000/svg" viewBox="0 0 1366 865">
  <defs>
    <style>
      .cls-1 {
        fill: #b3b3b3;
      }

      .cls-2 {
        fill: gray;
      }
    </style>
  </defs>
  <path class="cls-1" d="M296.73,619.62c3.03,1.99,5.45,4.06,5.93,4.06,3.36,0,7.53-7.28,10.5-7.09,5.43.35,7.54,13.73,13.3,6.4-3.5-11.94-13.41-25.69-15.94-36.83-4.05-17.9,6.89-58.42,5.87-61.44-4.83-14.3-31.06-39.35-29.79-57.26.46-6.47,13.88-21.99,11.77-31.88-1.26-5.95-9.44-7.23-11.59-11.18-14.69-26.96-4.52-61.66-7.35-76.52-1.1-5.8-8.41-9.43-8.87-19.19-1.38-29.47,35.86-82.53,36.17-88.37.09-1.61-2.13-3.38-3.99-5.53-63.44,118.91-66.34,262.88-6.01,384.84ZM293.78,600.62c-12.74-1.95-11.19-45.29,11.54-23.15-11.99.78-2.78,24.49-11.54,23.15Z"/>
  <path class="cls-1" d="M1048.41,581.54c4.26-5.64,16.05-9.11,16.43-10.76.41-1.77-9.25-13.33-7.97-17.75,1.22-4.23,9.92-7.39,11.69-12.71,3.28-9.87,1.11-68.79,4.63-86.64,1.65-8.39,9.96-13.47,11.65-23.15.35-2.02-1.37-39.1-2.23-40.97-4.15-8.98-29.17-34.08-38.31-32.78-7.04,1-13.63,9.38-19.69,11.44-6.07,2.06-8.33-8.99-14.25.03-2.36,4.41,17.22,13.82-4.69,23.76-3.87,1.76-7.41-7.04-11.35-7.58-4.21-.57-23.7,10.79-28.17,9.25-13.2-4.53-19.34-47.67-41.39-45.64,8.77-2.34,23.55-29.43,25.47-29.15,1.4.2,4.15,6.89,7.22,7.59,6.71,1.53,13.93-7.44,14.31,5.54.14,4.81-7.01,17.07-4.54,19.91.45.52,8.72.65,13.43,3.12,4.34,2.28,9.78,9.9,11.19,9.96,1.13.05,14.27-11.29,14.33-12.23.16-2.62-13.83-12.25-15.21-18.16-.02-1.44,8.85-9.43,10-9.42-4.36-.39-7.39-16-10.44-19.17-2-2.08-7.55,4.22-11.33,1.8-6.01-3.84-20.08-17.89-30.47-17.6-7,.2-25.92,7.81-34.82,9.39-4.84-8.5,12.43-24.18-3.3-29.37-6.99-2.3-38.65.02-39.49,9.89-.19,2.19,19.08,28.34,16.39,40.15-4.91,21.53-17.29,2-25.92,1.72-8.98-.29-22.3,13.03-32.36,14.82-14.71,2.62-66.68-27.76-76.61-39.72-10.1-12.17,1.84-30.12-5.13-32.56-23.19,3.21-34.05,18.6-59.2,19.79-5.77.28-16.25-10.29-18.02,1.28-.14.88,11.15,11.28-1.4,13.29-.38.06-3.01-4.21-6.46-4.35-4.95-.21-11.04,3.03-15.34.49-18.36-10.82-70.73-71.88-54.64-94.22,5.75-7.98,25.98-12.37,32.44-23.53-14.21-18.05-40.65-12.75-55.93-33.87-3.26-.1-32.6,44.5-41.52,50.36-3.1,2.03-12.14-9.19-23.86-8.27-12.02.95-19.16,10.86-26.29,12.06-5.59.93-13.58-9.89-20.38.59,14.11,9.51,11.38,22.49,18.3,35.09,13.03-16.55,20.52-.52,27.47.13,5.9.55,9.22-16.01,18.5.83,2.27,4.12-5.83,6.01-6.67,11.49-5.32,34.55,25.7,37.05,27.74,49.37.29,1.73-7.39,11.73-8.38,18.17-1.18,7.64.22,23.11-1.83,27.49-5.38,11.48-19.72,6.04-19.06,25.77.66,19.67,12.12,18.28,24.21,30.4-5.84,10.62-17.41-.11-21.74-4.75-8.07-8.62-11.33-20.51-20.56-28.32-12.4,7.88-3.36,7.79.51,15.16,4.88,9.28,10.76,18.6,17.44,26.7-6.8,11.28-17.75-1.23-20.51-.77-1.96.32-10.78,29.05-25.33,28.71.04,4.07,24.71,17.12,1.78,21.91-2.3.48-8.82-8.87-16.9,4.47,11.5,3.76-.03,26.31,11.9,27.89,3.35.44,21.02-20.59,27.56-5.16l-24.7,15.55c23.31,17.17,2.28,20.04,2.02,23.99-.05.72,8.85,10.69,9.57,10.74,2,.12,13.97-17.02,30.31,5.19l-17.92,16.02c-6.36-4.48-13.44-24.06-21.44-13.24-9.54,12.9-12.18,40.57-5.33,54.51,1.35,2.74,29.16,19.84,33.46,21.47,12.57,4.78,39.73-6.62,52.63.23,3.43-4.51-7.69-9.51-7.81-12.4-.06-1.46,23.33-15.48,24.79-15.52,15.29-.39-6.82,23.87-6.78,27.08.08,6.42,13.14,9.51-1.23,21.9,12.66,17.11,35.27,9.95,46.85,13.07,7.42,2,14.22,10,19.21,11.15,6.17,1.42,9.65-8.72,15.15-5.61,1.57.89,23.97,18.2,23.81,19.73-1.23,11.64-38.64,16.66,5.47,42.08,3.94,2.27,14.67-8.56,15.45,3.48.17,2.57-16.32,7.94,9.43,17.49-18.42,26.79-57.1,50.21-84.04,20.2-22.59-25.16-2.04-25.81,6.7-36.63,1.1-1.36,14.14-24.82,13.23-26.03-23.37-21.08-19.87-4.01-37.08-2.03-7.74.89-31.37-13.13-34.58-.72-.25.98,5.18,5.93,2.92,9.1-4.37,6.14-12.02,8.94-17.28,17.36-4.49,7.19,11.12,31.97,7.51,42.84-7.94,7.24-18.46-29.06-20.1-31.49-12.21-18.04-35.81-2.29-11.31,14.31l-38.25,14.78c8.27,10.11,25.77,28.58,29.6,40.28,1.56,4.75-10.1,11.24-7.13,16.77,3.43,1.51,6.87,2.96,10.33,4.38,3.28-1.18,8.86-4.01,13.02-3.12,8.12,1.72,13.08,9.62,19.87,11.56,6.84,1.96,15.17-4.1,23.91-1.4,6.37,1.97,15.87,10.38,22.71,16.61,4.09.79,8.18,1.52,12.29,2.19,3.39-6,8.08-15.57,14.22-16.75,4.34-.84,26.47,14.4,42.3,6.39,2.49-1.26-5.02-8.17-2.75-10.93,4.71-5.73,20.82-8.45,26.41-16.54,7.21,5.27-4.01,7.63-3.97,9.92.22,11.45,12.78,2.24,18.52,3.29,1.56.29,33.11,15.64,24.13-5.91-2.02-4.85-8.03,8.98-11.89,1.03,17.73-26.3,27.5-11.37,43.23-12.67,25.28-2.09,35.53-16.79,62.46,8.59-.16,1.77-22.17,11.5-28.2,22.71,58.7-16.87,114.64-46.83,163.32-90.15,42.58-37.89,75.62-82.49,99.02-130.78-13.45,1.99-8.53-30.51-4.89-35.32ZM644.71,655.09c-10.59-8.28-26.61-18.84-27.02-33.9-.19-7.05,10.23-18.15,12.94-17.96,1.93.13,29.3,23.61,29.16,25.54-1.09,14.1-22.16-1.64-24.28,8.83-.2.97,18.4,5.71,9.19,17.49ZM734.16,755.62c-12.21-2.64-32.53-30.94-11.69-34.18,10.5-1.63,27.92,24.25,11.69,34.18ZM690.64,685.01l36.65,12.38c-1.78,14.24-38.64,1.85-36.65-12.38ZM801.8,637.06c-.32,1.71-22.99,14.65-28.07,20.47-4.99,5.72-3.27,18.36-12.7,20.04-11.52,2.05-27.91-15.75-34.49-24.48l24.27-8.81c-23.5-3.58-23.43-54.97,2.01-33.94-21.78,13.93-.12,18.73,14.41,15.68,6.84-1.44,14.76-10.06,21.06-8.99,5.82.99,13.98,17.51,13.52,20.03ZM654.98,478.6c-5.63-8.57-17.25,3.25-21.39-9.64-2.11-6.59,10.83-28.5,13.33-28.14,12.4,1.76,10.21,28.29,8.05,37.78ZM644.54,423.58c-15.62-14.33-21.29-24.13-1.23-37.45,14.18,10.84,13.71,25.24,1.23,37.45ZM719.9,356.51c-9.07,6.36-17.03,18.14-26.26,23.3-3.08,1.72-7.81-3.35-14.25-2.09-4.68.92-31.26,19.3-16.48-2.32,8.75-12.8,14.9-32.66,30.63-32.25,3.83.1,26.67,10.56,26.37,13.35Z"/>
  <path class="cls-1" d="M1014.46,326.01c.84-14.38-12.58-.7-13.54-.79.96,0,12.7,15.18,13.54.79Z"/>
  <path class="cls-1" d="M725.06,92.61c6.65-.91,13.11-5.87,17.37-5.61,4.47.28,9.12,5.62,14.14,7.02,3.74,1.04,8.68-3.54,11.72-1.34,18.09,13.11,7.97,27.1,11.98,34.1,8.56,14.94,40.3,2.65,53.48-.02,5.97,6.9,47.95,25.33,47.69,28.08-1.94,21.15-37.46-3.87-39.68-3.9-7.44-.09-39.15,14.44-45.99,13.95-4.89-.35-10.92-8.99-18.3-7.51-12.92,2.59,11.89,17.09,2.98,25.77,12.37,15.37-3.3,17.88-14.7,29.6-5.36-19.97-21.16-17.21-30.8-26.98-9.38-9.51-6.14-22.1-29.49-22.07-19.05.02-22.25,14.85-37.9-17.95,9.1-6.25,29.46-.27,36.17-6.28,1.2-1.07-7.41-17.3,13.28-24.88.81-7.9-35.88-14.2-6.96-24.99,6.28-2.34,11.9,3.43,15.01,3Z"/>
  <path class="cls-1" d="M370.64,274.95c4.12,8.47-6.09,18.59-6.41,28.52-.57,17.8,3.34,46.45,6.27,65.05.69,4.37,6.3,19.5-3.01,18.51-5.27-.56-5.74-25.45-16.22-32.99-2.98-2.14-9.23,4.83-11.1,2.59-4.28-5.12-1.57-11.93-3.94-17.44-4.19-9.74-22.54-20.06-1.67-23.58,1.61-.27,6.32,6.98,7.9,3.67,7.22-15.14,9.06-33.47,28.17-44.33Z"/>
  <path class="cls-1" d="M865.8,73.88c1.79.27,30.06,17.07,31.2,18.48,1.7,2.1-5.28,7.59-3.44,10.97,7.93,14.55,26.3,15.79,5.86,35.5-7.23-25.3-16.16-10.97-22.98-12.96-11.84-3.46-23.71-30.99-31.71-41.28.37-2.89,16.33-11.43,21.06-10.71Z"/>
  <path class="cls-1" d="M420.07,127.99c25.25,38.7.02,31.74-21.46,46.37-5.87,4-19.79,22.34-26.87,22.26-12.02-.13-4.01-7.31-.75-11.86,16.64-23.28,13.98-44.17,49.09-56.77Z"/>
  <path class="cls-1" d="M364.37,499.26l19.14,21.53c-23.98,4.29-.86,9.74-14.72,19.51l-6.52-14.94,2.1-26.1Z"/>
  <path class="cls-2" d="M752.82,610.34c-21.78,13.93-.12,18.73,14.41,15.68,6.84-1.44,14.76-10.06,21.06-8.99,5.82.99,13.98,17.51,13.52,20.03-.32,1.71-22.99,14.65-28.07,20.47-4.99,5.72-3.27,18.36-12.7,20.04-11.52,2.05-27.91-15.75-34.49-24.48l24.27-8.81c-23.5-3.58-23.43-54.97,2.01-33.94Z"/>
  <path class="cls-2" d="M693.54,343.16c3.83.1,26.67,10.56,26.37,13.35-9.07,6.36-17.03,18.14-26.26,23.3-3.08,1.72-7.81-3.35-14.25-2.09-4.68.92-31.26,19.3-16.48-2.32,8.75-12.8,14.9-32.66,30.63-32.25Z"/>
  <path class="cls-2" d="M305.32,577.47c-11.99.78-2.78,24.49-11.54,23.15-12.74-1.95-11.19-45.29,11.54-23.15Z"/>
  <path class="cls-2" d="M630.63,603.23c1.93.13,29.3,23.61,29.16,25.54-1.09,14.1-22.16-1.64-24.28,8.83-.2.97,18.4,5.71,9.19,17.49-10.59-8.28-26.61-18.84-27.02-33.9-.19-7.05,10.23-18.15,12.94-17.96Z"/>
  <path class="cls-2" d="M646.93,440.82c12.4,1.76,10.21,28.29,8.05,37.78-5.63-8.57-17.25,3.25-21.39-9.64-2.11-6.59,10.83-28.5,13.33-28.14Z"/>
  <path class="cls-2" d="M722.47,721.44c10.5-1.63,27.92,24.25,11.69,34.18-12.21-2.64-32.53-30.94-11.69-34.18Z"/>
  <path class="cls-2" d="M643.31,386.13c14.18,10.84,13.71,25.24,1.23,37.45-15.62-14.33-21.29-24.13-1.23-37.45Z"/>
  <path class="cls-2" d="M727.29,697.39c-1.78,14.24-38.64,1.85-36.65-12.38l36.65,12.38Z"/>
  <path class="cls-2" d="M511.51,801.68c-3.84-11.7-21.33-30.16-29.6-40.28l38.25-14.78c-24.5-16.6-.9-32.35,11.31-14.31,1.65,2.43,12.16,38.73,20.1,31.49,3.62-10.87-12-35.65-7.51-42.84,5.26-8.42,12.91-11.22,17.28-17.36,2.26-3.18-3.17-8.13-2.92-9.1,3.21-12.41,26.83,1.62,34.58.72,17.21-1.99,13.71-19.05,37.08,2.03.92,1.21-12.13,24.67-13.23,26.03-8.75,10.82-29.29,11.46-6.7,36.63,26.94,30.01,65.62,6.59,84.04-20.2-25.75-9.55-9.27-14.92-9.43-17.49-.78-12.03-11.51-1.21-15.45-3.48-44.11-25.43-6.69-30.45-5.47-42.08.16-1.54-22.24-18.85-23.81-19.73-5.5-3.11-8.98,7.04-15.15,5.61-4.99-1.15-11.78-9.15-19.21-11.15-11.58-3.12-34.18,4.04-46.85-13.07,14.37-12.39,1.31-15.47,1.23-21.9-.04-3.21,22.06-27.47,6.78-27.08-1.46.04-24.86,14.06-24.79,15.52.12,2.89,11.24,7.88,7.81,12.4-12.9-6.85-40.06,4.55-52.63-.23-4.3-1.64-32.11-18.73-33.46-21.47-6.85-13.94-4.21-41.6,5.33-54.51,8-10.82,15.08,8.76,21.44,13.24l17.92-16.02c-16.34-22.2-28.31-5.07-30.31-5.19-.72-.04-9.62-10.02-9.57-10.74.26-3.95,21.29-6.82-2.02-23.99l24.7-15.55c-6.54-15.44-24.21,5.6-27.56,5.16-11.93-1.57-.4-24.13-11.9-27.89,8.08-13.34,14.6-3.99,16.9-4.47,22.93-4.78-1.74-17.84-1.78-21.91,14.55.35,23.37-28.38,25.33-28.71,2.76-.46,13.7,12.05,20.51.77-6.69-8.11-12.56-17.42-17.44-26.7-3.87-7.37-12.91-7.28-.51-15.16,9.22,7.81,12.49,19.7,20.56,28.32,4.33,4.63,15.9,15.36,21.74,4.75-12.1-12.12-23.56-10.73-24.21-30.4-.66-19.73,13.68-14.29,19.06-25.77,2.05-4.37.65-19.85,1.83-27.49.99-6.43,8.67-16.43,8.38-18.17-2.03-12.32-33.05-14.82-27.74-49.37.84-5.48,8.94-7.37,6.67-11.49-9.28-16.83-12.6-.28-18.5-.83-6.94-.65-14.43-16.67-27.47-.13-6.92-12.6-4.19-25.59-18.3-35.09,6.8-10.48,14.79.34,20.38-.59,7.13-1.19,14.28-11.11,26.29-12.06,11.72-.93,20.77,10.3,23.86,8.27,8.92-5.86,38.26-50.46,41.52-50.36,15.28,21.13,41.72,15.83,55.93,33.87-6.46,11.16-26.69,15.54-32.44,23.53-16.1,22.34,36.28,83.4,54.64,94.22,4.3,2.54,10.39-.7,15.34-.49,3.45.14,6.08,4.41,6.46,4.35,12.54-2.01,1.26-12.41,1.4-13.29,1.78-11.57,12.25-1,18.02-1.28,25.15-1.2,36.02-16.58,59.2-19.79,6.97,2.44-4.98,20.39,5.13,32.56,9.93,11.96,61.9,42.33,76.61,39.72,10.06-1.79,23.38-15.11,32.36-14.82,8.63.28,21.01,19.8,25.92-1.72,2.69-11.8-16.57-37.96-16.39-40.15.84-9.87,32.5-12.19,39.49-9.89,15.73,5.19-1.54,20.87,3.3,29.37,8.9-1.58,27.82-9.19,34.82-9.39,10.39-.3,24.46,13.75,30.47,17.6,3.78,2.42,9.33-3.88,11.33-1.8,3.05,3.17,6.08,18.78,10.44,19.17.95.09,14.37-13.59,13.54.79-.84,14.4-12.58-.78-13.54-.79-1.16-.01-10.02,7.98-10,9.42,1.38,5.91,15.38,15.54,15.21,18.16-.06.94-13.21,12.28-14.33,12.23-1.41-.06-6.84-7.68-11.19-9.96-4.71-2.47-12.98-2.6-13.43-3.12-2.47-2.84,4.68-15.1,4.54-19.91-.38-12.98-7.6-4.01-14.31-5.54-3.07-.7-5.82-7.39-7.22-7.59-1.92-.27-16.69,26.82-25.47,29.15,22.05-2.02,28.19,41.11,41.39,45.64,4.48,1.54,23.97-9.82,28.17-9.25,3.94.54,7.48,9.33,11.35,7.58,21.91-9.94,2.33-19.34,4.69-23.76,5.92-9.02,8.18,2.03,14.25-.03,6.06-2.06,12.66-10.44,19.69-11.44,9.14-1.3,34.16,23.8,38.31,32.78.86,1.86,2.58,38.94,2.23,40.97-1.68,9.69-10,14.77-11.65,23.15-3.51,17.85-1.35,76.76-4.63,86.64-1.77,5.32-10.46,8.48-11.69,12.71-1.28,4.42,8.38,15.99,7.97,17.75-.38,1.64-12.17,5.12-16.43,10.76-3.64,4.82-8.56,37.31,4.89,35.32,72.07-148.75,52.32-332.58-64.4-463.73C834.3-20.6,568.12-36.1,394.39,118.51c-38.28,34.07-68.87,73.56-91.66,116.27,2.18,3.52,2.18,5.12.58,8.32-3.2,6.41-35.23,60.85-32.76,85.58.97,9.72,7.76,13.39,8.87,19.19,2.83,14.86-7.34,49.57,7.35,76.52,2.15,3.95,10.33,5.24,11.59,11.18,2.1,9.89-11.32,25.4-11.77,31.88-1.27,17.91,24.97,42.96,29.79,57.26,1.02,3.02-9.92,43.54-5.87,61.44,2.52,11.15,12.44,24.9,15.94,36.83-5.76,7.33-7.87-6.05-13.3-6.4-2.96-.19-7.13,7.09-10.5,7.09-.48,0-2.91-2.07-5.93-4.06,16.36,33.06,37.33,64.52,63.04,93.4,41.48,46.61,91,81.82,144.61,105.42-2.97-5.52,8.69-12.02,7.13-16.77ZM844.73,84.59c.37-2.89,16.33-11.43,21.06-10.71,1.79.27,30.06,17.07,31.2,18.48,1.7,2.1-5.28,7.59-3.44,10.97,7.93,14.55,26.3,15.79,5.86,35.5-7.23-25.3-16.16-10.97-22.98-12.96-11.84-3.46-23.71-30.99-31.71-41.28ZM667.56,145.76c9.1-6.25,29.46-.27,36.17-6.28,1.2-1.07-7.41-17.3,13.28-24.88.81-7.9-35.88-14.2-6.96-24.99,6.28-2.34,11.9,3.43,15.01,3,6.65-.91,13.11-5.87,17.37-5.61,4.47.28,9.12,5.62,14.14,7.02,3.74,1.04,8.68-3.54,11.72-1.34,18.09,13.11,7.97,27.1,11.98,34.1,8.56,14.94,40.3,2.65,53.48-.02,5.97,6.9,47.95,25.33,47.69,28.08-1.94,21.15-37.46-3.87-39.68-3.9-7.44-.09-39.16,14.44-45.99,13.95-4.89-.35-10.92-8.99-18.3-7.51-12.92,2.59,11.89,17.09,2.98,25.78,12.37,15.37-3.3,17.88-14.7,29.6-5.36-19.97-21.16-17.21-30.8-26.98-9.38-9.51-6.14-22.1-29.49-22.07-19.05.02-22.25,14.85-37.9-17.95ZM370.98,184.76c16.64-23.28,13.98-44.17,49.09-56.77,25.25,38.7.02,31.74-21.46,46.37-5.87,4-19.79,22.34-26.87,22.26-12.02-.13-4.01-7.31-.75-11.86ZM351.28,354.04c-2.98-2.14-9.23,4.83-11.1,2.59-4.28-5.12-1.57-11.93-3.94-17.44-4.19-9.74-22.54-20.06-1.67-23.58,1.61-.27,6.32,6.98,7.9,3.67,7.22-15.14,9.06-33.47,28.17-44.33,4.12,8.47-6.09,18.59-6.41,28.52-.57,17.8,3.34,46.45,6.27,65.05.69,4.37,6.3,19.5-3.01,18.51-5.27-.56-5.74-25.45-16.22-32.99ZM362.26,525.36l2.1-26.1,19.14,21.53c-23.98,4.29-.86,9.74-14.72,19.51l-6.52-14.94Z"/>
  <path class="cls-2" d="M819.16,815.09c-26.93-25.38-37.17-10.68-62.46-8.59-15.73,1.3-25.5-13.64-43.23,12.67,3.87,7.95,9.87-5.88,11.89-1.03,8.98,21.55-22.57,6.19-24.13,5.91-5.74-1.06-18.3,8.16-18.52-3.29-.04-2.29,11.17-4.64,3.97-9.92-5.59,8.09-21.7,10.81-26.41,16.54-2.27,2.76,5.25,9.67,2.75,10.93-15.84,8.01-37.97-7.23-42.3-6.39-6.14,1.18-10.83,10.75-14.22,16.75,61.17,9.95,124.27,6.43,184.46-10.87,6.03-11.21,28.04-20.94,28.2-22.71Z"/>
  <path class="cls-2" d="M547.6,831.26c-6.79-1.94-11.75-9.84-19.87-11.56-4.16-.88-9.74,1.94-13.02,3.12,25.77,10.53,52.42,18.42,79.51,23.65-6.84-6.24-16.34-14.64-22.71-16.61-8.74-2.7-17.07,3.35-23.91,1.4Z"/>
</svg>